<svg width="50" height="50" viewBox="0 0 50 50" fill="none" xmlns="http://www.w3.org/2000/svg">
<rect width="50" height="50" rx="25" fill="#6E2A80"/>
<path d="M37.5704 18.5467C37.2679 17.4059 36.3813 16.5065 35.2569 16.1993C33.2028 15.6292 24.986 15.6292 24.986 15.6292C24.986 15.6292 16.7696 15.6292 14.7154 16.1777C13.6127 16.4846 12.7044 17.406 12.4019 18.5467C11.8613 20.6305 11.8613 24.9519 11.8613 24.9519C11.8613 24.9519 11.8613 29.2951 12.4019 31.3571C12.7047 32.4978 13.591 33.3971 14.7156 33.7043C16.7912 34.2747 24.9863 34.2747 24.9863 34.2747C24.9863 34.2747 33.2028 34.2747 35.2569 33.7261C36.3815 33.4191 37.2679 32.5197 37.5708 31.379C38.1112 29.2951 38.1112 24.9739 38.1112 24.9739C38.1112 24.9739 38.1328 20.6305 37.5704 18.5467ZM22.37 28.9442V20.9596L29.2026 24.9519L22.37 28.9442Z" fill="#FAFAFA"/>
<defs>
</defs>
</svg>
