<svg width="50" height="50" viewBox="0 0 50 50" fill="none" xmlns="http://www.w3.org/2000/svg">
<rect width="50" height="50" rx="25" fill="#6E2A80"/>
<g clip-path="url(#clip0)">
<path d="M29.338 28.5149C31.2399 28.5149 32.7873 26.9378 32.7873 24.9993V19.3743C32.7873 17.4358 31.2399 15.8586 29.338 15.8586C27.436 15.8586 25.8887 17.4358 25.8887 19.3743V24.9993C25.8887 26.9378 27.436 28.5149 29.338 28.5149Z" fill="#FAFAFA"/>
<path d="M34.8565 21.4836C34.4755 21.4836 34.1666 21.7985 34.1666 22.1868V24.9993C34.1666 27.7132 32.0003 29.9211 29.3376 29.9211C26.6749 29.9211 24.5086 27.7132 24.5086 24.9993V22.1868C24.5086 21.7985 24.1998 21.4836 23.8188 21.4836C23.4378 21.4836 23.1289 21.7985 23.1289 22.1868V24.9993C23.1289 28.2509 25.5477 30.9372 28.6478 31.2881V34.1399H26.5782C26.1972 34.1399 25.8883 34.4547 25.8883 34.843C25.8883 35.2313 26.1972 35.5461 26.5782 35.5461H32.0971C32.4781 35.5461 32.7869 35.2313 32.7869 34.843C32.7869 34.4547 32.4781 34.1399 32.0971 34.1399H30.0275V31.2881C33.1275 30.9372 35.5464 28.2509 35.5464 24.9993V22.1868C35.5464 21.7984 35.2375 21.4836 34.8565 21.4836Z" fill="#FAFAFA"/>
<path d="M24.5094 19.3743C24.5094 18.986 24.2006 18.6712 23.8196 18.6712H22.8202L21.6312 16.2474C21.3657 15.7062 20.5944 15.7382 20.3737 16.3007L18.3137 21.5497L16.1497 14.9332C15.9409 14.2946 15.0501 14.2932 14.8408 14.9332L13.6183 18.6711H12.6899C12.3089 18.6711 12 18.9859 12 19.3743C12 19.7626 12.3089 20.0774 12.6899 20.0774H14.1156C14.4125 20.0774 14.6761 19.8837 14.77 19.5966L15.4953 17.379L17.6003 23.8154C17.6918 24.0953 17.9451 24.2872 18.2345 24.2958C18.52 24.3045 18.7864 24.1316 18.8952 23.8541L21.0841 18.2767L21.7769 19.6887C21.8937 19.927 22.1326 20.0774 22.3939 20.0774H23.8196C24.2006 20.0774 24.5094 19.7626 24.5094 19.3743Z" fill="#FAFAFA"/>
</g>
<defs>

<clipPath id="clip0">
<rect width="23.5472" height="24" fill="white" transform="translate(12 13)"/>
</clipPath>
</defs>
</svg>
