<svg width="50" height="50" viewBox="0 0 50 50" fill="none" xmlns="http://www.w3.org/2000/svg">
<rect width="50" height="50" rx="25" fill="#6E2A80"/>
<g clip-path="url(#clip0)">
<path d="M34.1277 20.113C35.0853 19.42 35.8908 18.555 36.5472 17.559V17.558C35.671 17.949 34.7389 18.209 33.7657 18.335C34.7664 17.726 35.5307 16.769 35.8898 15.616C34.9568 16.183 33.9266 16.583 32.8287 16.807C31.9427 15.845 30.68 15.25 29.3025 15.25C26.6299 15.25 24.4783 17.461 24.4783 20.171C24.4783 20.561 24.5106 20.936 24.5901 21.293C20.5773 21.093 17.0256 19.133 14.6395 16.146C14.2235 16.883 13.9782 17.726 13.9782 18.633C13.9782 20.337 14.8386 21.847 16.1229 22.722C15.3469 22.707 14.5865 22.477 13.9419 22.116V22.17C13.9419 24.561 15.6147 26.547 17.8095 27.005C17.4161 27.115 16.9883 27.167 16.5438 27.167C16.2348 27.167 15.9228 27.149 15.6304 27.083C16.2554 29.031 18.0312 30.464 20.1407 30.511C18.4983 31.82 16.4124 32.609 14.1548 32.609C13.7594 32.609 13.3797 32.591 13 32.542C15.1389 33.947 17.6722 34.75 20.4056 34.75C28.9248 34.75 34.477 27.506 34.1277 20.113Z" fill="#FAFAFA"/>
</g>
<defs>
<clipPath id="clip0">
<rect width="23.5472" height="24" fill="white" transform="translate(13 13)"/>
</clipPath>
</defs>
</svg>
