<svg width="50" height="50" viewBox="0 0 50 50" fill="none" xmlns="http://www.w3.org/2000/svg">
<rect width="50" height="50" rx="25" fill="#6E2A80"/>
<g clip-path="url(#clip0)">
<path d="M37.5461 18.5172C37.7196 17.9312 37.5461 17.5 36.7118 17.5H33.9508C33.2477 17.5 32.9243 17.8703 32.7508 18.2828C32.7508 18.2828 31.3446 21.7094 29.3571 23.9312C28.7149 24.5734 28.4196 24.7797 28.068 24.7797C27.8946 24.7797 27.6274 24.5734 27.6274 23.9875V18.5172C27.6274 17.8141 27.4305 17.5 26.8492 17.5H22.5086C22.068 17.5 21.8055 17.8281 21.8055 18.1328C21.8055 18.7984 22.7992 18.9531 22.9024 20.8281V24.8969C22.9024 25.7875 22.743 25.9516 22.3914 25.9516C21.4539 25.9516 19.1758 22.5109 17.8258 18.5734C17.5539 17.8094 17.2867 17.5 16.5789 17.5H13.818C13.0305 17.5 12.8711 17.8703 12.8711 18.2828C12.8711 19.0141 13.8086 22.6469 17.2352 27.4469C19.518 30.7234 22.7336 32.5 25.6586 32.5C27.4164 32.5 27.6321 32.1062 27.6321 31.4266C27.6321 28.2953 27.4727 28 28.3539 28C28.7617 28 29.4649 28.2062 31.1055 29.7859C32.9805 31.6609 33.2899 32.5 34.3399 32.5H37.1008C37.8883 32.5 38.2868 32.1062 38.0571 31.3281C37.5321 29.6922 33.9836 26.3266 33.8243 26.1016C33.4164 25.5766 33.5336 25.3422 33.8243 24.8734C33.8289 24.8687 37.1993 20.125 37.5461 18.5172Z" fill="white"/>
</g>
<defs>
<clipPath id="clip0">
<rect width="27" height="24" fill="white" transform="translate(12 13)"/>
</clipPath>
</defs>
</svg>
