<svg width="145" height="495" viewBox="0 0 145 495" fill="none" xmlns="http://www.w3.org/2000/svg">
<circle cx="2.5" cy="2.5" r="2.5" fill="#FAFAFA" fill-opacity="0.05"/>
<circle cx="37.5" cy="2.5" r="2.5" fill="#FAFAFA" fill-opacity="0.05"/>
<circle cx="72.5" cy="2.5" r="2.5" fill="#FAFAFA" fill-opacity="0.05"/>
<circle cx="107.5" cy="2.5" r="2.5" fill="#FAFAFA" fill-opacity="0.05"/>
<circle cx="142.5" cy="2.5" r="2.5" fill="#FAFAFA" fill-opacity="0.05"/>
<circle cx="2.5" cy="37.5" r="2.5" fill="#FAFAFA" fill-opacity="0.05"/>
<circle cx="37.5" cy="37.5" r="2.5" fill="#FAFAFA" fill-opacity="0.05"/>
<circle cx="72.5" cy="37.5" r="2.5" fill="#FAFAFA" fill-opacity="0.05"/>
<circle cx="107.5" cy="37.5" r="2.5" fill="#FAFAFA" fill-opacity="0.05"/>
<circle cx="142.5" cy="37.5" r="2.5" fill="#FAFAFA" fill-opacity="0.05"/>
<circle cx="2.5" cy="72.5" r="2.5" fill="#FAFAFA" fill-opacity="0.05"/>
<circle cx="37.5" cy="72.5" r="2.5" fill="#FAFAFA" fill-opacity="0.05"/>
<circle cx="72.5" cy="72.5" r="2.5" fill="#FAFAFA" fill-opacity="0.05"/>
<circle cx="107.5" cy="72.5" r="2.5" fill="#FAFAFA" fill-opacity="0.05"/>
<circle cx="142.5" cy="72.5" r="2.5" fill="#FAFAFA" fill-opacity="0.05"/>
<circle cx="2.5" cy="107.5" r="2.5" fill="#FAFAFA" fill-opacity="0.05"/>
<circle cx="37.5" cy="107.5" r="2.5" fill="#FAFAFA" fill-opacity="0.05"/>
<circle cx="72.5" cy="107.5" r="2.5" fill="#FAFAFA" fill-opacity="0.05"/>
<circle cx="107.5" cy="107.5" r="2.5" fill="#FAFAFA" fill-opacity="0.05"/>
<circle cx="142.5" cy="107.5" r="2.5" fill="#FAFAFA" fill-opacity="0.05"/>
<circle cx="2.5" cy="142.5" r="2.5" fill="#FAFAFA" fill-opacity="0.05"/>
<circle cx="37.5" cy="142.5" r="2.5" fill="#FAFAFA" fill-opacity="0.05"/>
<circle cx="72.5" cy="142.5" r="2.5" fill="#FAFAFA" fill-opacity="0.05"/>
<circle cx="107.5" cy="142.5" r="2.5" fill="#FAFAFA" fill-opacity="0.05"/>
<circle cx="142.5" cy="142.5" r="2.5" fill="#FAFAFA" fill-opacity="0.05"/>
<circle cx="2.5" cy="177.5" r="2.5" fill="#FAFAFA" fill-opacity="0.05"/>
<circle cx="37.5" cy="177.5" r="2.5" fill="#FAFAFA" fill-opacity="0.05"/>
<circle cx="72.5" cy="177.5" r="2.5" fill="#FAFAFA" fill-opacity="0.05"/>
<circle cx="107.5" cy="177.5" r="2.5" fill="#FAFAFA" fill-opacity="0.05"/>
<circle cx="142.5" cy="177.5" r="2.5" fill="#FAFAFA" fill-opacity="0.05"/>
<circle cx="2.5" cy="212.5" r="2.5" fill="#FAFAFA" fill-opacity="0.05"/>
<circle cx="37.5" cy="212.5" r="2.5" fill="#FAFAFA" fill-opacity="0.05"/>
<circle cx="72.5" cy="212.5" r="2.5" fill="#FAFAFA" fill-opacity="0.05"/>
<circle cx="107.5" cy="212.5" r="2.5" fill="#FAFAFA" fill-opacity="0.05"/>
<circle cx="142.5" cy="212.5" r="2.5" fill="#FAFAFA" fill-opacity="0.05"/>
<circle cx="2.5" cy="247.5" r="2.5" fill="#FAFAFA" fill-opacity="0.05"/>
<circle cx="37.5" cy="247.5" r="2.5" fill="#FAFAFA" fill-opacity="0.05"/>
<circle cx="72.5" cy="247.5" r="2.5" fill="#FAFAFA" fill-opacity="0.05"/>
<circle cx="107.5" cy="247.5" r="2.5" fill="#FAFAFA" fill-opacity="0.05"/>
<circle cx="142.5" cy="247.5" r="2.5" fill="#FAFAFA" fill-opacity="0.05"/>
<circle cx="2.5" cy="282.5" r="2.5" fill="#FAFAFA" fill-opacity="0.05"/>
<circle cx="37.5" cy="282.5" r="2.5" fill="#FAFAFA" fill-opacity="0.05"/>
<circle cx="72.5" cy="282.5" r="2.5" fill="#FAFAFA" fill-opacity="0.05"/>
<circle cx="107.5" cy="282.5" r="2.5" fill="#FAFAFA" fill-opacity="0.05"/>
<circle cx="142.5" cy="282.5" r="2.5" fill="#FAFAFA" fill-opacity="0.05"/>
<circle cx="2.5" cy="317.5" r="2.5" fill="#FAFAFA" fill-opacity="0.05"/>
<circle cx="37.5" cy="317.5" r="2.5" fill="#FAFAFA" fill-opacity="0.05"/>
<circle cx="72.5" cy="317.5" r="2.5" fill="#FAFAFA" fill-opacity="0.05"/>
<circle cx="107.5" cy="317.5" r="2.5" fill="#FAFAFA" fill-opacity="0.05"/>
<circle cx="142.5" cy="317.5" r="2.5" fill="#FAFAFA" fill-opacity="0.05"/>
<circle cx="2.5" cy="352.5" r="2.5" fill="#FAFAFA" fill-opacity="0.05"/>
<circle cx="37.5" cy="352.5" r="2.5" fill="#FAFAFA" fill-opacity="0.05"/>
<circle cx="72.5" cy="352.5" r="2.5" fill="#FAFAFA" fill-opacity="0.05"/>
<circle cx="107.5" cy="352.5" r="2.5" fill="#FAFAFA" fill-opacity="0.05"/>
<circle cx="142.5" cy="352.5" r="2.5" fill="#FAFAFA" fill-opacity="0.05"/>
<circle cx="2.5" cy="387.5" r="2.5" fill="#FAFAFA" fill-opacity="0.05"/>
<circle cx="37.5" cy="387.5" r="2.5" fill="#FAFAFA" fill-opacity="0.05"/>
<circle cx="72.5" cy="387.5" r="2.5" fill="#FAFAFA" fill-opacity="0.05"/>
<circle cx="107.5" cy="387.5" r="2.5" fill="#FAFAFA" fill-opacity="0.05"/>
<circle cx="142.5" cy="387.5" r="2.5" fill="#FAFAFA" fill-opacity="0.05"/>
<circle cx="2.5" cy="422.5" r="2.5" fill="#FAFAFA" fill-opacity="0.05"/>
<circle cx="37.5" cy="422.5" r="2.5" fill="#FAFAFA" fill-opacity="0.05"/>
<circle cx="72.5" cy="422.5" r="2.5" fill="#FAFAFA" fill-opacity="0.05"/>
<circle cx="107.5" cy="422.5" r="2.5" fill="#FAFAFA" fill-opacity="0.05"/>
<circle cx="142.5" cy="422.5" r="2.5" fill="#FAFAFA" fill-opacity="0.05"/>
<circle cx="2.5" cy="457.5" r="2.5" fill="#FAFAFA" fill-opacity="0.05"/>
<circle cx="37.5" cy="457.5" r="2.5" fill="#FAFAFA" fill-opacity="0.05"/>
<circle cx="72.5" cy="457.5" r="2.5" fill="#FAFAFA" fill-opacity="0.05"/>
<circle cx="107.5" cy="457.5" r="2.5" fill="#FAFAFA" fill-opacity="0.05"/>
<circle cx="142.5" cy="457.5" r="2.5" fill="#FAFAFA" fill-opacity="0.05"/>
<circle cx="2.5" cy="492.5" r="2.5" fill="#FAFAFA" fill-opacity="0.05"/>
<circle cx="37.5" cy="492.5" r="2.5" fill="#FAFAFA" fill-opacity="0.05"/>
<circle cx="72.5" cy="492.5" r="2.5" fill="#FAFAFA" fill-opacity="0.05"/>
<circle cx="107.5" cy="492.5" r="2.5" fill="#FAFAFA" fill-opacity="0.05"/>
<circle cx="142.5" cy="492.5" r="2.5" fill="#FAFAFA" fill-opacity="0.05"/>
</svg>
